<?xml version="1.0" encoding="utf-8"?>
<!-- Generator: Adobe Illustrator 18.1.1, SVG Export Plug-In . SVG Version: 6.00 Build 0)  -->
<svg version="1.1" id="_x30_" xmlns="http://www.w3.org/2000/svg" xmlns:xlink="http://www.w3.org/1999/xlink" x="0px" y="0px"
	 viewBox="0 0 595.3 841.9" enable-background="new 0 0 595.3 841.9" xml:space="preserve">
<g>
	<g>
		<g id="CIRCLE">
			
				<path fill="none" stroke="#000000" stroke-width="0.7087" stroke-linecap="round" stroke-linejoin="round" stroke-miterlimit="10" d="
				M240.4,483.5c0-6.3,5.1-11.3,11.3-11.3c6.2,0,11.3,5.1,11.3,11.3c0,6.3-5.1,11.3-11.3,11.3C245.5,494.8,240.4,489.7,240.4,483.5
				L240.4,483.5z"/>
		</g>
		<g id="ARC_3_">
			
				<path fill="none" stroke="#000000" stroke-width="0.7087" stroke-linecap="round" stroke-linejoin="round" stroke-miterlimit="10" d="
				M333.9,541.6h-23.7c-7.1,4.7-16.4,4.7-23.5,0H263c-9.8,0-17.7-7.9-17.7-17.7c0-9.8,7.9-17.7,17.7-17.7h23.7
				c7.1-4.7,16.4-4.7,23.5,0h23.7c9.8,0,17.7,7.9,17.7,17.7C351.6,533.6,343.7,541.6,333.9,541.6z"/>
		</g>
		<g id="ARC_15_">
			
				<path fill="none" stroke="#000000" stroke-width="0.7087" stroke-linecap="round" stroke-linejoin="round" stroke-miterlimit="10" d="
				M285.1,553.6h26.7c1.5,0,2.9,0.4,4.2,1.1l18.8,10.6c1.3,0.7,2.7,1.1,4.2,1.1h0.6c12.5,0,22.7-10.2,22.7-22.7V297.1
				c0-12.5-10.2-22.7-22.7-22.7H339c-1.5,0-2.9,0.4-4.2,1.1L316,286.1c-1.3,0.7-2.7,1.1-4.2,1.1h-26.7c-1.5,0-2.9-0.4-4.2-1.1
				l-18.8-10.6c-1.3-0.7-2.7-1.1-4.2-1.1h-0.6c-12.5,0-22.7,10.2-22.7,22.7v246.6c0,12.5,10.2,22.7,22.7,22.7h0.6
				c1.5,0,2.9-0.4,4.2-1.1l18.8-10.6C282.2,554,283.7,553.6,285.1,553.6z"/>
		</g>
	</g>
	<text transform="matrix(4.489659e-011 -1 1 4.489659e-011 375.4883 495.8835)" font-family="'OCRAExtended'" font-size="7.9997">Bosean FS-5000 Radiation Detector </text>
	<text transform="matrix(4.489659e-011 -1 1 4.489659e-011 385.0879 495.8835)" enable-background="new    "><tspan x="0" y="0" font-family="'OCRAExtended'" font-size="7.9997">Print/cut size 45.5 x 102.5mm</tspan><tspan x="0" y="9.6" font-family="'OCRAExtended'" font-size="7.9997">TallmanLabs V1   05/2024</tspan></text>
</g>
</svg>
